<?xml version="1.0" encoding="UTF-8"?>
<svg xmlns="http://www.w3.org/2000/svg" xmlns:xlink="http://www.w3.org/1999/xlink" width="2100" height="2100" viewBox="0 0 2100 2100">
<rect x="-210" y="-210" width="2520" height="2520" fill="rgb(99.21875%, 96.875%, 96.875%)" fill-opacity="1"/>
<path fill-rule="evenodd" fill="rgb(77.734375%, 0%, 0%)" fill-opacity="1" d="M 1050 470.25 C 1050 470.25 674.730469 1019.210938 674.730469 1254.484375 C 674.730469 1461.601562 842.882812 1629.753906 1050 1629.753906 C 1257.121094 1629.753906 1425.269531 1461.601562 1425.269531 1254.484375 C 1425.269531 1019.210938 1050 470.25 1050 470.25 "/>
<path fill-rule="evenodd" fill="rgb(61.521912%, 0%, 0%)" fill-opacity="1" d="M 1247.808594 792.351562 C 1314.058594 927.210938 1365.910156 1061.75 1365.910156 1152.539062 C 1365.910156 1371.632812 1188.03125 1549.507812 968.9375 1549.507812 C 890.570312 1549.507812 817.472656 1526.75 755.894531 1487.476562 C 824.660156 1574.136719 930.886719 1629.753906 1050 1629.753906 C 1257.121094 1629.753906 1425.269531 1461.601562 1425.269531 1254.484375 C 1425.269531 1141.105469 1338.121094 954.878906 1247.808594 792.351562 "/>
<path fill-rule="evenodd" fill="rgb(100%, 100%, 100%)" fill-opacity="1" d="M 1014.449219 620.910156 C 1014.449219 620.910156 852.265625 950.640625 799.242188 1097.878906 C 791.597656 1119.113281 802.625 1142.550781 823.855469 1150.195312 C 845.082031 1157.839844 868.519531 1146.8125 876.164062 1125.585938 C 929.191406 978.339844 1014.449219 620.910156 1014.449219 620.910156 "/>
<path fill-rule="evenodd" fill="rgb(100%, 100%, 100%)" fill-opacity="1" d="M 800.714844 1197.113281 C 825.605469 1197.113281 845.8125 1217.320312 845.8125 1242.214844 C 845.8125 1267.105469 825.605469 1287.3125 800.714844 1287.3125 C 775.824219 1287.3125 755.613281 1267.105469 755.613281 1242.214844 C 755.613281 1217.320312 775.824219 1197.113281 800.714844 1197.113281 "/>
</svg>
